<svg xmlns="http://www.w3.org/2000/svg" viewBox="0 0 64 64">
  <!-- Fondo verde oscuro -->
  <rect width="64" height="64" rx="12" fill="#0d1f1a"/>
  <!-- Lamparita simplificada -->
  <path d="M32 10 C22 10 14 18 14 28 C14 35 18 40 24 43 L24 50 L40 50 L40 43 C46 40 50 35 50 28 C50 18 42 10 32 10 Z" fill="none" stroke="#5ed29c" stroke-width="2.5"/>
  <path d="M32 10 C22 10 14 18 14 28 C14 35 18 40 24 43 L24 50 L40 50 L40 43 C46 40 50 35 50 28 C50 18 42 10 32 10 Z" fill="#5ed29c" opacity="0.15"/>
  <!-- Filamento -->
  <path d="M26 42 L28 36 L31 40 L32 35 L33 40 L36 36 L38 42" stroke="#5ed29c" stroke-width="1.5" fill="none" stroke-linecap="round" stroke-linejoin="round"/>
  <!-- Base -->
  <rect x="24" y="50" width="16" height="4" rx="2" fill="#5ed29c" opacity="0.6"/>
  <rect x="26" y="54" width="12" height="3" rx="1.5" fill="#5ed29c" opacity="0.4"/>
</svg>
