<svg xmlns="http://www.w3.org/2000/svg" viewBox="0 0 200 280" fill="none" style="background:transparent">
  <!-- Rayos -->
  <line x1="100" y1="4"  x2="100" y2="22" stroke="#111111" stroke-width="5" stroke-linecap="round"/>
  <line x1="148" y1="16" x2="136" y2="30" stroke="#111111" stroke-width="5" stroke-linecap="round"/>
  <line x1="172" y1="56" x2="155" y2="60" stroke="#111111" stroke-width="5" stroke-linecap="round"/>
  <line x1="52"  y1="16" x2="64"  y2="30" stroke="#111111" stroke-width="5" stroke-linecap="round"/>
  <line x1="28"  y1="56" x2="45"  y2="60" stroke="#111111" stroke-width="5" stroke-linecap="round"/>

  <!-- Vidrio del foco -->
  <path d="M100 30 C65 30 38 57 38 92 C38 115 50 134 70 144 L70 168 L130 168 L130 144 C150 134 162 115 162 92 C162 57 135 30 100 30 Z"
    fill="#3a8c5c" stroke="#111111" stroke-width="7" stroke-linejoin="round"/>

  <!-- Globo — círculo exterior -->
  <circle cx="100" cy="107" r="34" fill="none" stroke="#111111" stroke-width="4"/>
  <!-- Meridianos verticales -->
  <ellipse cx="100" cy="107" rx="16" ry="34" fill="none" stroke="#111111" stroke-width="3.5"/>
  <!-- Paralelos horizontales -->
  <line x1="66" y1="96"  x2="134" y2="96"  stroke="#111111" stroke-width="3"/>
  <line x1="66" y1="118" x2="134" y2="118" stroke="#111111" stroke-width="3"/>

  <!-- </> -->
  <text x="100" y="84" font-family="monospace" font-size="20" font-weight="900" fill="#111111" text-anchor="middle">&lt;/&gt;</text>

  <!-- Base del foco -->
  <rect x="70"  y="168" width="60" height="14" rx="5" fill="#111111"/>
  <rect x="74"  y="182" width="52" height="12" rx="4" fill="#333333"/>
  <rect x="78"  y="194" width="44" height="11" rx="4" fill="#555555"/>
  <rect x="88"  y="205" width="24" height="10" rx="3" fill="#111111"/>
</svg>
